# xmcd CD database file
#
# Track frame offsets:
#	150
#	22917
#	48302
#
# Disc length: 940 seconds
#
# Revision: 0
# Processed by: cddbd v1.5PL3 Copyright (c) Steve Scherf et al.
# Submitted via: CDex 1.50
#
DISCID=1803aa03
DTITLE=バロック - Chaplin
DYEAR=1900
DGENRE=Visual_Rock
TTITLE0=CherryKing
TTITLE1=butterfly
TTITLE2=babybaby
EXTD=
EXTT0=
EXTT1=
EXTT2=
PLAYORDER=
